<?xml version="1.0" encoding="utf-8"?>
<!-- Generator: Adobe Illustrator 25.2.1, SVG Export Plug-In . SVG Version: 6.00 Build 0)  -->
<svg version="1.1" id="Layer_1" xmlns="http://www.w3.org/2000/svg" xmlns:xlink="http://www.w3.org/1999/xlink" x="0px" y="0px"
	 viewBox="0 0 512 512" style="enable-background:new 0 0 512 512;" xml:space="preserve">
<path d="M111.2,443.9l-6,24.9H85.3l26-97.1h25.1l26.4,97.1h-20.7l-6.6-24.9H111.2L111.2,443.9z M132.7,427.5l-5.3-20.6
	c-1.4-5.8-2.9-13.1-4.1-18.7h-0.4c-1.1,5.8-2.5,13.1-3.8,18.7l-5.2,20.6H132.7L132.7,427.5z"/>
<path d="M225.2,366.5v81.3c0,8.1,0.2,16.3,0.5,21h-17l-0.8-10.2h-0.4c-3.8,7.8-11.3,11.8-19.3,11.8c-14.6,0-26.3-14.2-26.3-36.2
	c-0.1-23.6,12.8-37.5,27.6-37.5c7.7,0,13.5,3.2,16.2,7.9h0.3v-38.2L225.2,366.5L225.2,366.5z M206,428.3c0-1.3,0-2.7-0.3-4
	c-1.1-5.9-5.3-10.7-11.2-10.7c-8.8,0-13.2,8.9-13.2,20c0,11.8,5.2,19.3,13.1,19.3c5.5,0,10.1-4.3,11.2-10.5c0.3-1.4,0.4-3.2,0.4-4.9
	L206,428.3L206,428.3z"/>
<path d="M262.6,470.4c-18,0-31.9-13.5-31.9-36.3c0-22.7,13.1-37.3,33-37.3c18.8,0,31.4,14.8,31.4,36.2c0,25.7-16,37.4-32.4,37.4
	L262.6,470.4L262.6,470.4z M263,454.7c7.6,0,12.2-8.5,12.2-21.2c0-10.4-3.5-21.1-12.2-21.1c-9.1,0-12.6,10.7-12.6,21.2
	c0,11.9,4.4,21,12.4,21H263L263,454.7z"/>
<path d="M300.7,366.5h19.2v40.2h0.3c3.6-6,10.1-9.9,18.6-9.9c14.8,0,25.5,14,25.3,35.6c0,25.4-14,38-28.1,38
	c-7.2,0-14.3-3-18.5-11.4h-0.2l-0.7,9.8h-16.3c0.2-4.6,0.5-13.1,0.5-21L300.7,366.5L300.7,366.5z M319.9,438.9
	c0,1.4,0.2,2.7,0.4,3.9c1.2,5.8,5.7,10.4,11.2,10.4c8.2,0,13.3-7.2,13.3-19.9c0-11-4.3-19.6-13.3-19.6c-5.1,0-9.9,4.5-11.2,10.8
	c-0.2,1.3-0.4,2.6-0.4,4V438.9L319.9,438.9z"/>
<path d="M384.9,440.5c0.6,9.2,8.5,13.5,17.4,13.5c6.5,0,11.8-1,17-3l2.5,14.8c-6.3,3-14,4.4-22.3,4.4c-20.9,0-32.9-13.8-32.9-36
	c0-17.9,9.8-37.6,31.1-37.6c19.9,0,27.5,17.7,27.5,35.2c0,3.7-0.4,7.1-0.6,8.8L384.9,440.5L384.9,440.5z M407.5,425.5
	c0-5.2-2-14.3-10.7-14.3c-8.2,0-11.5,8.5-12,14.3H407.5z"/>
<path d="M336.8,342.7l-81.3-188.8l-55.2,127.8h59.1l23.2,61L336.8,342.7z"/>
<path d="M301,41.6l125.5,300.9l0.3-300.9L301,41.6z"/>
<path d="M85.1,41.6v298.8L211.9,41.6L85.1,41.6z"/>
</svg>
